HIERARCHY
ROOT Hips
{
	OFFSET -21.947001 39.810204 44.525997
	CHANNELS 6 Xposition Yposition Zposition Zrotation Xrotation Yrotation
	JOINT Chest
	{
		OFFSET -0.201599 0.334099 6.453201
		CHANNELS 6 Xposition Yposition Zposition Zrotation Xrotation Yrotation
		JOINT Chest2
		{
			OFFSET 0.000000 0.000000 3.568001
			CHANNELS 6 Xposition Yposition Zposition Zrotation Xrotation Yrotation
			JOINT Neck
			{
				OFFSET 0.000000 0.000000 8.296402
				CHANNELS 6 Xposition Yposition Zposition Zrotation Xrotation Yrotation
				JOINT Head
				{
					OFFSET 0.000000 0.000000 2.173901
					CHANNELS 6 Xposition Yposition Zposition Zrotation Xrotation Yrotation
					End Site
					{
						OFFSET 0.000000 0.000000 7.891998
					}
				}
			}
			JOINT LeftCollar
			{
				OFFSET 1.927601 0.221401 6.049000
				CHANNELS 6 Xposition Yposition Zposition Zrotation Xrotation Yrotation
				JOINT LeftShoulder
				{
					OFFSET 4.959700 0.000000 0.000000
					CHANNELS 6 Xposition Yposition Zposition Zrotation Xrotation Yrotation
					JOINT LeftElbow
					{
						OFFSET 0.000000 0.000000 -8.654202
						CHANNELS 6 Xposition Yposition Zposition Zrotation Xrotation Yrotation
						JOINT LeftWrist
						{
							OFFSET 0.000000 0.000000 -13.864101
							CHANNELS 6 Xposition Yposition Zposition Zrotation Xrotation Yrotation
							End Site
							{
								OFFSET 0.000000 0.000000 -2.173901
							}
						}
					}
				}
			}
			JOINT RightCollar
			{
				OFFSET -3.155701 -0.764999 6.687801
				CHANNELS 6 Xposition Yposition Zposition Zrotation Xrotation Yrotation
				JOINT RightShoulder
				{
					OFFSET -3.592899 0.000000 0.000000
					CHANNELS 6 Xposition Yposition Zposition Zrotation Xrotation Yrotation
					JOINT RightElbow
					{
						OFFSET 0.000000 0.000000 -10.352398
						CHANNELS 6 Xposition Yposition Zposition Zrotation Xrotation Yrotation
						JOINT RightWrist
						{
							OFFSET 0.000000 0.000000 -12.750301
							CHANNELS 6 Xposition Yposition Zposition Zrotation Xrotation Yrotation
							End Site
							{
								OFFSET 0.000000 0.000000 -2.173901
							}
						}
					}
				}
			}
		}
	}
	JOINT LeftHip
	{
		OFFSET 2.460600 -0.518101 -2.735500
		CHANNELS 6 Xposition Yposition Zposition Zrotation Xrotation Yrotation
		JOINT LeftKnee
		{
			OFFSET 0.000000 -0.000004 -17.005899
			CHANNELS 6 Xposition Yposition Zposition Zrotation Xrotation Yrotation
			JOINT LeftAnkle
			{
				OFFSET 0.000000 0.000000 -19.194401
				CHANNELS 6 Xposition Yposition Zposition Zrotation Xrotation Yrotation
				End Site
				{
					OFFSET 0.000000 -8.134600 0.000000
				}
			}
		}
	}
	JOINT RightHip
	{
		OFFSET -3.115499 -0.679600 -2.320301
		CHANNELS 6 Xposition Yposition Zposition Zrotation Xrotation Yrotation
		JOINT RightKnee
		{
			OFFSET 0.000000 -0.000004 -17.680401
			CHANNELS 6 Xposition Yposition Zposition Zrotation Xrotation Yrotation
			JOINT RightAnkle
			{
				OFFSET 0.000000 0.000000 -16.993797
				CHANNELS 6 Xposition Yposition Zposition Zrotation Xrotation Yrotation
				End Site
				{
					OFFSET 0.000000 -8.842300 0.000000
				}
			}
		}
	}
}
MOTION
Frames: 4
Frame Time: 0.041667
-10.335098 22.781603 44.747494 2448.814063 2.208029 2.774672 -0.201600 0.334099 6.453197 -1.301739 -10.109414 5.688048 0.000001 0.000001 3.567998 0.756081 -0.740598 0.096174 0.000002 0.000001 8.296396 226.134996 -173.817045 178.551964 -0.000004 0.000000 2.173910 2.262861 2.128069 4.152656 1.927598 0.221405 6.048999 -24.347224 5.653472 1.327844 4.959700 -0.000006 0.000007 120.932925 205.873759 76.694466 0.000003 -0.000006 -8.654194 75.022245 -34.896990 33.100453 -0.000001 -0.000006 -13.864109 4078.518618 -152.922963 168.001794 -3.155707 -0.765001 6.687800 48.261943 13.416236 -3.638090 -3.592901 0.000007 0.000010 -136.153742 212.662885 278.688712 -0.000010 0.000002 -10.352397 -212.949917 -137.715670 -164.895520 0.000005 0.000000 -12.750307 -30.954117 178.293633 -173.992608 2.460599 -0.518097 -2.735508 -2.366517 -1.308234 -1.622549 -0.000005 0.000000 -17.005901 -168.517473 171.197257 -166.639650 -0.000003 0.000001 -19.194397 583.701191 162.571671 192.734852 -3.115498 -0.679598 -2.320302 6.004511 9.572648 -5.030614 -0.000000 0.000000 -17.680397 -834.389078 159.952785 -207.150239 0.000002 -0.000003 -16.993795 1043.702848 47.316641 -406.907072
-10.369297 22.831007 44.746693 2448.520529 2.185804 2.673360 -0.201597 0.334092 6.453203 -1.207137 -10.354099 5.672274 0.000000 0.000002 3.567998 0.783007 -0.739523 0.098608 0.000000 -0.000000 8.296403 226.930672 -173.540231 178.796567 -0.000004 0.000002 2.173898 2.416141 2.000091 4.257009 1.927599 0.221402 6.049003 -24.541215 5.777254 1.492511 4.959702 -0.000006 -0.000006 120.508128 205.822368 76.508610 -0.000004 -0.000003 -8.654198 73.897674 -35.313772 32.694442 0.000001 0.000005 -13.864103 4077.701618 -153.359071 166.143532 -3.155704 -0.764996 6.687801 48.362217 13.607320 -3.652307 -3.592902 0.000000 0.000009 -135.492594 212.616877 278.786465 -0.000006 0.000002 -10.352394 -213.189028 -137.744466 -164.999776 0.000004 -0.000001 -12.750304 -32.622933 177.671238 -177.090836 2.460600 -0.518104 -2.735503 -2.691309 -1.037148 -1.594965 -0.000003 -0.000009 -17.005899 -167.966837 171.582179 -166.586183 -0.000006 0.000003 -19.194399 583.687203 162.552861 192.559220 -3.115498 -0.679602 -2.320300 6.053116 9.637713 -4.911280 -0.000003 0.000000 -17.680397 -834.172533 160.032329 -207.229934 0.000002 0.000002 -16.993792 1044.872176 47.535180 -406.204792
-10.403998 22.884602 44.745590 2448.230491 2.172619 2.568112 -0.201599 0.334097 6.453199 -1.105443 -10.608698 5.657946 0.000003 0.000006 3.567999 0.808431 -0.738856 0.100627 -0.000003 0.000004 8.296403 227.722933 -173.266081 179.061004 -0.000000 -0.000001 2.173909 2.444444 1.884792 4.290219 1.927603 0.221404 6.049002 -24.729579 5.895834 1.650136 4.959698 -0.000002 -0.000004 120.108016 205.772781 76.327562 0.000008 -0.000001 -8.654197 73.544595 -35.298564 32.765022 -0.000001 -0.000005 -13.864098 4076.077235 -153.862305 164.288521 -3.155704 -0.765001 6.687805 48.453423 13.793617 -3.651954 -3.592905 0.000002 0.000004 -134.851348 212.558397 278.876351 -0.000008 0.000002 -10.352397 -213.425694 -137.790351 -165.122583 0.000003 0.000003 -12.750311 -34.298335 176.876327 -180.183327 2.460600 -0.518099 -2.735505 -3.020889 -0.757264 -1.482715 -0.000005 -0.000001 -17.005901 -167.361587 172.009708 -166.611878 -0.000007 0.000000 -19.194399 583.619775 162.526018 192.334821 -3.115498 -0.679594 -2.320298 6.096993 9.691951 -4.789847 -0.000004 -0.000001 -17.680397 -833.953148 160.108664 -207.319355 0.000001 -0.000005 -16.993793 1045.636611 47.400488 -406.566573
-10.437798 22.940603 44.744396 2447.953350 2.169187 2.461728 -0.201598 0.334092 6.453197 -0.995298 -10.863988 5.646865 -0.000001 0.000002 3.567993 0.831650 -0.740801 0.101956 -0.000004 -0.000002 8.296399 228.451222 -173.057514 179.319950 -0.000001 -0.000001 2.173909 2.476886 1.751046 4.327555 1.927600 0.221407 6.048995 -24.909696 6.004848 1.807571 4.959702 -0.000001 0.000006 119.755086 205.713085 76.153706 -0.000005 0.000004 -8.654198 72.888405 -35.399440 32.640354 0.000000 -0.000004 -13.864100 4074.738737 -154.361756 162.495733 -3.155705 -0.764997 6.687798 48.535229 13.969287 -3.647303 -3.592904 -0.000003 0.000014 -134.257176 212.489098 278.963668 -0.000006 -0.000006 -10.352403 -213.656787 -137.856823 -165.267451 0.000005 -0.000004 -12.750298 -35.913883 175.988512 -183.086199 2.460599 -0.518101 -2.735503 -3.336515 -0.491174 -1.438356 -0.000002 -0.000005 -17.005905 -166.733223 172.423700 -166.571033 -0.000006 0.000004 -19.194397 583.486887 162.485337 192.048909 -3.115499 -0.679601 -2.320300 6.134980 9.732967 -4.669686 -0.000002 -0.000004 -17.680395 -833.738570 160.177649 -207.413256 0.000002 -0.000001 -16.993795 1046.031560 47.245877 -406.703368
